<svg overflow="hidden" xml:space="preserve" xmlns:xlink="http://www.w3.org/1999/xlink" xmlns="http://www.w3.org/2000/svg" height="31" width="31"><g transform="translate(-474 -1087)"><path d="M476.583 1093.46 476.583 1111.54 502.417 1111.54 502.417 1093.46 476.583 1093.46ZM489.952 1104.73C489.694 1104.99 489.306 1104.99 489.048 1104.73L479.49 1095.4 499.543 1095.4 489.952 1104.73ZM484.818 1102.4 478.521 1108.73 478.521 1096.24 484.818 1102.4ZM485.754 1103.31 488.176 1105.66C488.564 1106.02 489.048 1106.21 489.532 1106.21 490.017 1106.21 490.501 1106.02 490.889 1105.66L493.31 1103.31 499.575 1109.6 479.457 1109.6 485.754 1103.31ZM494.182 1102.4 500.479 1096.27 500.479 1108.7 494.182 1102.4Z"></path></g></svg>